HIERARCHY
ROOT Hips
{
     OFFSET 61.26400 94.63060 -2.61621
     CHANNELS 6 Xposition Yposition Zposition Zrotation Xrotation Yrotation
     JOINT Spine
     {
          OFFSET -0.00000 11.89050 -0.00000
          CHANNELS 3 Zrotation Xrotation Yrotation
          JOINT Spine1
          {
               OFFSET -0.00000 25.65740 0.12766
               CHANNELS 3 Zrotation Xrotation Yrotation
               JOINT HEad
               {
                    OFFSET -0.00000 8.73416 0.01134
                    CHANNELS 3 Zrotation Xrotation Yrotation
                    End Site
                    {
                         OFFSET -0.29000 12.77420 2.51395
                    }
               }
               JOINT LeftShoulder1
               {
                    OFFSET 8.99000 -0.36225 -0.22000
                    CHANNELS 3 Zrotation Xrotation Yrotation
                    JOINT LeftArm
                    {
                         OFFSET 10.28270 -0.00338 0.32212
                         CHANNELS 3 Zrotation Xrotation Yrotation
                         JOINT LeftForeArm
                         {
                              OFFSET 32.76690 0.09914 -1.42434
                              CHANNELS 3 Zrotation Xrotation Yrotation
                              JOINT LeftHand
                              {
                                   OFFSET 27.56430 0.08536 1.02216
                                   CHANNELS 3 Zrotation Xrotation Yrotation
                                   End Site
                                   {
                                        OFFSET 16.74430 -0.60000 1.50291
                                   }
                              }
                         }
                    }
               }
               JOINT RightShoulder
               {
                    OFFSET -8.99000 -0.36225 -0.22000
                    CHANNELS 3 Zrotation Xrotation Yrotation
                    JOINT RightArm
                    {
                         OFFSET -10.28270 -0.00338 0.32212
                         CHANNELS 3 Zrotation Xrotation Yrotation
                         JOINT RightForeArm
                         {
                              OFFSET -32.89710 0.09914 -1.42434
                              CHANNELS 3 Zrotation Xrotation Yrotation
                              JOINT RightHand
                              {
                                   OFFSET -27.49210 0.08536 1.02216
                                   CHANNELS 3 Zrotation Xrotation Yrotation
                                   End Site
                                   {
                                        OFFSET -16.63120 -0.60000 1.50291
                                   }
                              }
                         }
                    }
               }
          }
     }
     JOINT LeftUpLeg
     {
          OFFSET 8.94580 -8.66707 0.10165
          CHANNELS 3 Zrotation Xrotation Yrotation
          JOINT LeftLeg
          {
               OFFSET 0.00000 -44.42270 1.37270
               CHANNELS 3 Zrotation Xrotation Yrotation
               JOINT LeftFoot
               {
                    OFFSET -0.25355 -42.09240 -1.46059
                    CHANNELS 3 Zrotation Xrotation Yrotation
                    JOINT LeftToes
                    {
                         OFFSET -0.04000 -4.41509 8.49910
                         CHANNELS 3 Zrotation Xrotation Yrotation
                         End Site
                         {
                              OFFSET 0.08000 -0.04745 9.77979
                         }
                    }
               }
          }
     }
     JOINT RightUpLeg
     {
          OFFSET -8.94580 -8.66707 0.10165
          CHANNELS 3 Zrotation Xrotation Yrotation
          JOINT RightLeg
          {
               OFFSET 0.00000 -44.42270 1.37270
               CHANNELS 3 Zrotation Xrotation Yrotation
               JOINT RightFoot
               {
                    OFFSET 0.25355 -42.09240 -1.46059
                    CHANNELS 3 Zrotation Xrotation Yrotation
                    JOINT RightToes
                    {
                         OFFSET 0.04000 -4.41509 8.49910
                         CHANNELS 3 Zrotation Xrotation Yrotation
                         End Site
                         {
                              OFFSET -0.08000 -0.13745 9.77979
                         }
                    }
               }
          }
     }
}
MOTION
Frames: 17
Frame Time: 0.01667
21.94990 94.69360 -21.09490 -10.81000 -13.11970 -41.41820 -0.86224 12.55040 -0.70481 0.84176 25.04450 -1.75164 -2.36957 -11.45480 19.35470 -0.00000 0.00000 -0.00000 -94.91800 -62.48380 -78.29410 -28.93330 35.71820 -76.74600 16.55170 7.66863 -11.79670 9.14135 0.19280 -1.36200 86.90140 -0.59417 81.73080 6.29703 30.52900 97.16390 14.01780 11.11960 5.23733 25.92710 -2.06704 -20.88480 -30.12340 8.12420 76.74390 -4.85815 11.51450 0.72504 8.76838 -6.82984 -52.27530 -23.93720 11.97560 14.37090 38.15470 8.39981 -34.57630 -34.08570 -1.36446 1.80816 0.04620 0.00053 0.66264 
22.02740 94.81890 -21.19740 -10.83450 -13.11270 -41.83250 -1.21055 12.48260 -0.70292 0.55435 24.88010 -1.81533 -2.17126 -11.36840 19.99410 -0.00000 0.00000 -0.00000 -95.46780 -63.36600 -78.92700 -28.71850 36.44150 -77.07310 16.42400 7.66675 -11.94110 9.23336 0.20887 -1.23587 87.34360 -0.26065 81.51740 5.68778 30.59800 97.42270 13.99680 11.23020 6.11639 26.13130 -2.67570 -20.93390 -30.70020 8.62084 78.86820 -4.62197 12.56830 0.72152 9.14539 -6.32067 -53.97440 -24.13150 12.23600 14.61530 38.08780 7.36869 -34.30140 -34.68550 -0.49438 2.12147 0.04620 0.00053 0.66264 
22.08960 94.93710 -21.29930 -10.57110 -13.34480 -41.91000 -1.39520 12.57500 -0.56225 0.53637 25.03570 -1.60573 -2.87474 -11.34210 19.58440 -0.00000 0.00000 -0.00000 -97.36880 -63.21190 -80.64740 -29.85900 37.23870 -76.56310 16.88110 7.62486 -11.77330 8.86873 0.20802 -1.22808 87.50050 -0.54303 81.80220 6.05695 30.80430 97.57900 13.22170 11.06650 5.34674 25.92430 -3.08864 -20.78110 -31.23280 8.89215 78.56520 -3.87832 12.96570 0.60168 9.18038 -5.33712 -52.62700 -24.62350 12.39030 14.67840 38.04640 6.77793 -34.03490 -35.06250 0.10078 2.33891 0.04620 0.00053 0.66264 
22.20180 95.04250 -21.29850 -10.51770 -13.16180 -42.18200 -1.57249 12.53870 -0.69221 0.49645 24.93120 -1.91059 -2.53285 -11.73130 20.52090 -0.00000 0.00000 -0.00000 -99.17650 -64.40880 -81.94860 -30.05300 38.24270 -76.89730 16.93980 7.64626 -11.56640 8.79669 0.24843 -0.89060 87.16840 -0.03009 81.88420 5.92684 30.51960 97.72180 12.91460 11.02660 5.22825 26.08170 -3.77210 -20.66260 -31.82290 9.26291 80.05110 -2.79591 12.72480 0.40323 9.82445 -3.85755 -54.29770 -24.66060 12.22750 14.59770 38.03940 6.70932 -32.74730 -34.51630 -0.39111 2.14248 0.04620 0.00053 0.66264 
22.25680 95.08530 -21.29480 -10.78320 -13.12280 -42.37550 -1.63739 12.57030 -0.65219 0.67313 24.97260 -1.92169 -3.10788 -11.42520 20.66230 -0.00000 0.00000 -0.00000 -101.21000 -65.01650 -83.63110 -30.74980 39.49990 -76.30940 17.26790 7.55497 -11.87240 8.59769 0.24660 -0.89263 87.16680 0.02361 81.97890 5.37206 30.36600 98.05820 12.25020 10.96160 5.14110 26.48610 -4.10948 -20.54320 -32.34620 9.63326 81.09340 -3.21535 13.02590 0.48413 10.50520 -2.08277 -55.51250 -24.53740 12.54710 14.95110 38.03170 6.16512 -32.38300 -34.62680 -0.37062 2.15671 0.04620 0.00053 0.66264 
22.36100 95.18680 -21.23580 -10.88300 -13.38000 -42.50720 -1.87539 12.66040 -0.63978 0.63550 25.12530 -2.00308 -2.93056 -11.57440 21.30020 -0.00000 0.00000 -0.00000 -101.48500 -65.22920 -83.74570 -31.04840 39.73870 -76.35800 16.98430 7.60223 -11.82780 8.52644 0.29965 -0.43989 87.01320 -0.34357 82.00950 4.19540 30.26530 98.52390 11.81340 10.97600 5.60468 26.20670 -4.30981 -20.19990 -32.63150 10.21060 81.23620 -3.96968 12.53450 0.60581 11.22090 1.97332 -53.98350 -24.89060 13.25190 15.42370 37.94580 5.03252 -32.13060 -34.96200 0.23529 2.37450 0.04620 0.00053 0.66264 
22.49150 95.19180 -20.92950 -10.85060 -13.10120 -42.67370 -1.85137 12.56510 -0.66657 0.88699 24.90630 -2.13999 -3.87056 -11.42690 21.07180 -0.00000 0.00000 -0.00000 -107.11200 -66.43470 -88.19530 -33.07340 42.44810 -74.79920 17.58580 7.55656 -11.55630 8.29423 0.31310 -0.30040 87.40730 -0.30673 81.75120 4.03358 30.27840 98.54400 12.43390 11.00730 5.40945 26.17770 -4.94183 -20.60370 -33.07070 10.45110 82.48930 -4.15142 11.57990 0.60912 11.37620 1.88107 -54.77530 -25.29980 13.56510 15.71790 38.21310 3.79654 -31.69190 -34.82040 0.93039 2.58545 0.04620 0.00053 0.66264 
22.54700 95.20350 -20.70930 -10.79910 -13.00480 -42.71690 -1.90731 12.58510 -0.56241 0.77856 24.94110 -1.91255 -1.15897 -13.69440 21.86520 -0.00000 0.00000 -0.00000 -107.83400 -66.24790 -88.82450 -33.65450 42.73760 -74.52210 17.28410 7.63811 -11.29130 8.80136 0.25025 -0.87585 86.82940 -0.03336 81.72830 4.38051 30.12380 98.32740 12.67780 11.02980 5.42529 26.21780 -5.03492 -19.88650 -33.34970 10.29310 82.02670 -4.75275 10.48880 0.67140 11.38120 3.16708 -53.41840 -25.51610 13.74150 16.08360 38.21850 3.18677 -31.45370 -34.40470 1.12070 2.61103 0.04620 0.00053 0.66264 
22.70960 95.16990 -20.43000 -10.81140 -13.04190 -42.47050 -1.94070 12.49750 -0.67626 0.93961 24.73350 -2.21840 -4.29907 -11.01620 21.64340 -0.00000 0.00000 -0.00000 -102.10800 -65.23480 -83.60240 -31.03890 40.92320 -76.54860 17.44510 7.63034 -11.19310 8.52754 0.35582 0.03417 86.90020 -1.08404 81.14260 4.59951 30.32920 98.24790 12.02170 10.98040 5.48136 26.12470 -5.17679 -19.45490 -33.18500 10.21560 81.87980 -5.63291 10.18390 0.79739 11.60350 2.57627 -54.99780 -25.86890 14.32790 15.89070 38.29500 2.49967 -31.09830 -34.50020 1.43455 2.71815 0.04620 0.00053 0.66264 
22.81510 95.09120 -20.03730 -11.01190 -12.82560 -42.27100 -1.64236 12.46490 -0.81940 0.87934 24.69680 -2.33465 -3.91113 -10.80100 22.21690 -0.00000 0.00000 -0.00000 -97.74420 -64.21210 -80.23040 -29.58880 38.84480 -77.72330 16.92430 7.78535 -10.61320 8.87957 0.38816 0.25331 86.80950 -1.20221 80.90090 4.49789 30.15010 98.15140 11.90940 10.97540 5.52335 26.36030 -5.50961 -19.94400 -33.38680 9.91473 82.86680 -6.06676 9.66402 0.84063 11.55880 2.41327 -54.98390 -25.73840 14.39030 15.78080 38.26060 2.89207 -30.94270 -33.21690 0.79835 2.41335 0.04620 0.00053 0.66264 
22.92570 95.02160 -19.57310 -10.95260 -12.84760 -42.30640 -1.69198 12.40390 -0.78558 0.70166 24.57530 -2.22999 -4.71101 -10.47660 21.91510 -0.00000 0.00000 -0.00000 -104.67700 -65.98310 -86.07080 -31.65700 42.83190 -75.61920 17.61190 7.70389 -10.54840 9.32964 0.41486 0.40090 86.04070 -1.57848 80.54470 4.33226 30.10230 97.88160 11.63370 10.96700 5.66483 26.14030 -5.60380 -19.76690 -33.29150 9.74962 82.05790 -5.77735 9.44805 0.78745 10.64840 1.10338 -52.33180 -26.32780 14.74650 16.53570 38.48640 2.00621 -31.07900 -33.40140 0.88651 2.45517 0.04620 0.00053 0.66264 
23.06670 94.88090 -19.05690 -11.02050 -12.61540 -41.99840 -1.34456 12.25960 -0.89413 0.85493 24.30710 -2.33018 -4.04043 -10.96680 21.93570 -0.00000 0.00000 -0.00000 -99.41660 -64.86220 -81.14540 -30.81640 40.59060 -76.40240 17.47510 7.73922 -10.43210 9.25833 0.41662 0.42607 86.05600 -1.64619 79.85700 3.49228 29.82910 98.29470 11.51130 10.96450 5.74169 26.29630 -6.02421 -20.24380 -33.42740 9.26933 82.76390 -6.07214 8.37789 0.78155 11.14940 2.62268 -52.98000 -26.26790 14.81620 16.13650 38.41590 2.42857 -30.90780 -32.93130 0.49583 2.29925 0.04620 0.00053 0.66264 
23.18470 94.77510 -18.49030 -11.09900 -12.39690 -42.24730 -1.32252 12.16360 -0.72825 0.68248 24.12850 -1.95200 -4.00022 -11.01250 22.29490 -0.00000 0.00000 -0.00000 -96.06150 -64.01580 -78.15290 -28.52060 39.56010 -77.69520 17.58730 7.75650 -10.21790 9.53437 0.38761 0.15571 85.60830 -1.74551 79.48460 2.92026 29.57590 98.36230 11.56190 10.99640 5.99983 26.36700 -6.50611 -20.96570 -33.53650 9.40938 82.91660 -8.43942 7.58877 1.05985 11.32390 5.67279 -50.84790 -26.59650 14.92630 16.58860 38.63460 2.06093 -30.39530 -32.81870 0.32200 2.23835 0.04620 0.00053 0.66264 
23.36820 94.68460 -17.83230 -11.10890 -12.52710 -42.20040 -0.99390 12.12870 -0.71040 0.43991 24.11300 -1.72953 -4.43065 -10.78890 22.34950 -0.00000 0.00000 -0.00000 -98.69280 -65.11560 -80.18510 -30.67070 41.20440 -75.79950 17.48730 7.77600 -10.17350 10.20070 0.51928 1.05678 84.60360 -3.03551 79.22280 1.28327 29.43580 98.63360 10.80210 10.94280 6.14416 26.08400 -6.49230 -20.21020 -32.89790 9.77435 81.97190 -8.08761 8.16856 1.05011 11.30880 5.08221 -51.29980 -27.08670 15.38010 16.40280 38.50690 2.15514 -29.92850 -31.80800 -0.15090 2.02427 0.04620 0.00053 0.66264 
23.50590 94.52790 -17.16420 -10.80720 -12.22620 -42.04290 -1.33491 11.85650 -0.67258 0.29798 23.52300 -1.80040 -5.33661 -10.09110 22.34620 -0.00000 0.00000 -0.00000 -94.03910 -64.78660 -75.81210 -30.58750 39.75910 -75.60650 17.80000 7.73957 -10.14820 10.33560 0.59770 1.61420 83.95650 -3.66744 78.57740 0.59870 28.85250 98.28840 10.92800 10.99490 6.54711 26.39690 -6.89362 -20.03110 -33.34060 9.36820 80.39620 -9.24962 6.77397 1.10745 11.36770 8.07528 -49.11780 -27.94230 15.55390 17.09220 39.19360 1.04371 -29.72610 -31.40930 -0.29811 1.95367 0.04620 0.00053 0.66264 
23.68050 94.38330 -16.42950 -11.04880 -11.97840 -42.12010 -1.05081 11.86680 -0.53054 0.49044 23.56170 -1.49109 -5.44880 -10.42840 22.56680 -0.00000 0.00000 -0.00000 -86.70550 -62.32070 -69.53260 -28.65970 35.74720 -76.72790 17.32000 7.77747 -10.31010 9.74759 0.50852 1.06229 83.74760 -3.50249 78.39950 -1.18458 28.53890 98.50830 10.54710 10.95530 6.50911 26.62580 -7.41607 -19.28640 -32.95920 10.47140 80.01790 -9.21240 7.61588 1.16489 11.13670 5.70758 -50.08220 -28.05700 15.91840 17.28530 39.08070 0.77545 -29.48680 -30.56630 -0.44868 1.85304 0.04620 0.00053 0.66264 
23.93440 94.22460 -15.50510 -11.22390 -11.54490 -42.25920 -0.67086 11.62700 -0.36663 0.63597 23.12270 -1.12135 -5.79154 -10.82010 22.31250 -0.00000 0.00000 -0.00000 -81.96030 -61.29800 -64.92150 -28.50160 33.50370 -76.65250 16.58940 7.92476 -9.93550 9.30295 0.51811 1.22866 83.44400 -4.35053 78.04530 -3.03048 28.05390 98.20160 10.67320 10.94930 6.32899 26.93890 -8.06087 -19.02350 -32.72170 11.41370 80.33320 -9.59237 7.51039 1.20754 11.41690 4.99649 -51.80910 -28.21340 16.16120 17.56190 38.99300 0.30773 -29.20170 -30.53140 -0.38282 1.86902 0.04620 0.00053 0.66264 
